<svg xmlns="http://www.w3.org/2000/svg" viewBox="0 0 64 64"><g data-name="30-Jude"><path d="m34 22-2 2-2-2v-2.41l2 .41a5.106 5.106 0 0 0 2-.41z" style="fill:#faa68e"/><path d="M43 17h5v18h-4a33.008 33.008 0 0 0-2-11 9.507 9.507 0 0 0-2.05-1H42a2 2 0 0 0 0-4h-1a1.959 1.959 0 0 0 2-2z" style="fill:#004c56"/><path d="M44 21a1.959 1.959 0 0 1-2 2h2a2 2 0 0 0 0-4h-1a1.959 1.959 0 0 0 2-2h-2a1.959 1.959 0 0 1-2 2h1a1.959 1.959 0 0 1 2 2zM41.95 23h-2A9.507 9.507 0 0 1 42 24a33.008 33.008 0 0 1 2 11h2a33.008 33.008 0 0 0-2-11 9.507 9.507 0 0 0-2.05-1z" style="fill:#023d42"/><path d="M21 17a1.959 1.959 0 0 0 2 2h-1a2 2 0 0 0 0 4h2.05A9.507 9.507 0 0 0 22 24a33.008 33.008 0 0 0-2 11h-4V17z" style="fill:#004c56"/><path d="M21 19h-1a2 2 0 0 0 0 4h2a2 2 0 0 1 0-4h1a1.959 1.959 0 0 1-2-2h-2a1.959 1.959 0 0 0 2 2zM22.05 23A9.507 9.507 0 0 0 20 24a33.008 33.008 0 0 0-2 11h2a33.008 33.008 0 0 1 2-11 9.507 9.507 0 0 1 2.05-1z" style="fill:#023d42"/><path d="M42 13h8v4h-7a1.959 1.959 0 0 0-2-2h-1a1.959 1.959 0 0 0 2-2zM22 13a1.959 1.959 0 0 0 2 2h-1a1.959 1.959 0 0 0-2 2h-7v-4z" style="fill:#00313f"/><path style="fill:#f2f6fc" d="M14 46h36v6H14z"/><path d="M16 46h-2v6h36v-2H20a4 4 0 0 1-4-4z" style="fill:#dce1eb"/><path d="M61 41v22H3V41zM50 52v-6H14v6z" style="fill:#b24535"/><path style="fill:#e66441" d="M63 35v6H1v-6h62z"/><path d="M3 37v-2H1v6h62v-2H5a2 2 0 0 1-2-2z" style="fill:#d1573b"/><path d="M27 22.27a17.379 17.379 0 0 0-2.95.73H22a2 2 0 0 1 0-4h1a2 2 0 0 1 0-4h1a2 2 0 0 1 0-4V9a8 8 0 1 1 16 0v2a2 2 0 0 1 0 4h1a2 2 0 0 1 0 4h1a2 2 0 0 1 0 4h-2.05a17.379 17.379 0 0 0-2.95-.73 21.132 21.132 0 0 0-3-.27v-2.41A5.029 5.029 0 0 0 37 15v-3c-5 0-5-5-5-5 0 5-5 5-5 5v3a5.022 5.022 0 0 0 1.46 3.54A5.131 5.131 0 0 0 30 19.59V22a21.132 21.132 0 0 0-3 .27z" style="fill:#ffe4c2"/><path d="M42 19h-1a2 2 0 0 0 0-4h-1a2 2 0 0 0 0-4V9a7.955 7.955 0 0 0-9-7.931A7.973 7.973 0 0 1 38 9v2a2 2 0 0 1 0 4h1a2 2 0 0 1 0 4h1a2 2 0 0 1 0 4h2a2 2 0 0 0 0-4z" style="fill:#f2d1a5"/><path d="M22 21a1.959 1.959 0 0 1 2-2h1a2 2 0 0 1 0-4h1a2 2 0 0 1 0-4V9a7.994 7.994 0 0 1 7-7.931A7.953 7.953 0 0 0 24 9v2a2 2 0 0 0 0 4h-1a2 2 0 0 0 0 4h-1a2 2 0 0 0 0 4h2a1.959 1.959 0 0 1-2-2z" style="fill:#f2d1a5"/><path d="M37 22.27V28a2.006 2.006 0 0 1-2 2h-6a2.006 2.006 0 0 1-2-2v-5.73a21.132 21.132 0 0 1 3-.27l2 2 2-2a21.132 21.132 0 0 1 3 .27z" style="fill:#dce1eb"/><path d="M44 35H20a33.008 33.008 0 0 1 2-11 9.507 9.507 0 0 1 2.05-1 17.379 17.379 0 0 1 2.95-.73V28a2.006 2.006 0 0 0 2 2h6a2.006 2.006 0 0 0 2-2v-5.73a17.379 17.379 0 0 1 2.95.73A9.507 9.507 0 0 1 42 24a33.008 33.008 0 0 1 2 11z" style="fill:#636978"/><path d="M34 19.59a5.106 5.106 0 0 1-2 .41l-2-.41a5.131 5.131 0 0 1-1.54-1.05A5.022 5.022 0 0 1 27 15v-3s5 0 5-5c0 0 0 5 5 5v3a5.029 5.029 0 0 1-3 4.59z" style="fill:#ffcdbe"/><path d="M32 7c0 5-5 5-5 5v2s5 0 5-5c0 0 0 5 5 5v-2c-5 0-5-5-5-5z" style="fill:#ffbeaa"/><path d="M32 21a6.006 6.006 0 0 1-6-6v-3a1 1 0 0 1 1-1 3.85 3.85 0 0 0 4-4 1 1 0 0 1 2 0 3.85 3.85 0 0 0 4 4 1 1 0 0 1 1 1v3a6.006 6.006 0 0 1-6 6zm-4-8.086V15a4 4 0 0 0 8 0v-2.062a5.337 5.337 0 0 1-3.974-2.438A6 6 0 0 1 28 12.914z"/><path d="M44 36H20a1 1 0 0 1-1-1 33.759 33.759 0 0 1 2.071-11.371 1 1 0 0 1 .374-.461c2.4-1.6 5.864-2.02 7.555-2.129V19h2v3a1 1 0 0 1-1 1c-.046 0-4.445.025-7.182 1.665A32.868 32.868 0 0 0 21.02 34h21.961a32.813 32.813 0 0 0-1.8-9.335C38.444 23.025 34.045 23 34 23a1 1 0 0 1-1-1v-3h2v2.039c1.691.109 5.155.529 7.555 2.129a1 1 0 0 1 .374.461A33.759 33.759 0 0 1 45 35a1 1 0 0 1-1 1z"/><path d="M32 25a1 1 0 0 1-.707-.293l-2-2 1.414-1.414L32 22.586l1.293-1.293 1.414 1.414-2 2A1 1 0 0 1 32 25zM63 42H1a1 1 0 0 1-1-1v-6a1 1 0 0 1 1-1h62a1 1 0 0 1 1 1v6a1 1 0 0 1-1 1zM2 40h60v-4H2z"/><path d="M61 64H3a1 1 0 0 1-1-1V41h2v21h56V41h2v22a1 1 0 0 1-1 1zM42 24h-2.05v-2H42a1 1 0 1 0-.012-2H41a1 1 0 0 1 0-2 .915.915 0 0 0 1-1 .918.918 0 0 0-1.012-1H40a1 1 0 0 1 0-2 .915.915 0 0 0 1-1 .918.918 0 0 0-1.012-1A1.012 1.012 0 0 1 39 11V9a7 7 0 0 0-14 0v2a1 1 0 0 1-1 1 .915.915 0 0 0-1 1 .918.918 0 0 0 1.01 1 1 1 0 0 1 0 2H23a.915.915 0 0 0-1 1 .918.918 0 0 0 1.01 1 1 1 0 0 1 0 2H22a1 1 0 1 0 .012 2h2.038v2H22a2.916 2.916 0 0 1-3-3 2.8 2.8 0 0 1 1.337-2.527A3.13 3.13 0 0 1 20 17a2.8 2.8 0 0 1 1.337-2.527A3.13 3.13 0 0 1 21 13a2.818 2.818 0 0 1 2-2.833V9a9 9 0 1 1 18 0v1.167A2.818 2.818 0 0 1 43 13a3.13 3.13 0 0 1-.337 1.473A2.8 2.8 0 0 1 44 17a3.13 3.13 0 0 1-.337 1.473A2.8 2.8 0 0 1 45 21a2.916 2.916 0 0 1-3 3z"/><path d="M35 31h-6a3 3 0 0 1-3-3v-6h2v6a1 1 0 0 0 1 1h6a1 1 0 0 0 1-1v-6h2v6a3 3 0 0 1-3 3zM50 18h-7v-2h6v-2h-7v-2h8a1 1 0 0 1 1 1v4a1 1 0 0 1-1 1z"/><path d="M47 17h2v18h-2zM21 18h-7a1 1 0 0 1-1-1v-4a1 1 0 0 1 1-1h8v2h-7v2h6z"/><path d="M15 17h2v18h-2zM50 53H14a1 1 0 0 1-1-1v-6a1 1 0 0 1 1-1h36a1 1 0 0 1 1 1v6a1 1 0 0 1-1 1zm-35-2h34v-4H15z"/></g></svg>